<mxfile host="app.diagrams.net" modified="2022-07-08T07:41:54.131Z" agent="5.0 (Macintosh; Intel Mac OS X 10_15_7) AppleWebKit/537.36 (KHTML, like Gecko) Chrome/100.0.4896.60 Safari/537.36" etag="IZolmeWdWU8elBYPqQsY" version="20.0.4" type="github">
  <diagram id="PdoD2k2y9Z0wsaibSQwX" name="Page-1">
    <mxGraphModel dx="946" dy="589" grid="1" gridSize="10" guides="1" tooltips="1" connect="1" arrows="1" fold="1" page="1" pageScale="1" pageWidth="850" pageHeight="1100" math="0" shadow="0">
      <root>
        <mxCell id="0" />
        <mxCell id="1" parent="0" />
        <mxCell id="z_bUYEb38IMCgXF8E90Z-13" style="edgeStyle=orthogonalEdgeStyle;rounded=0;orthogonalLoop=1;jettySize=auto;html=1;exitX=0.5;exitY=1;exitDx=0;exitDy=0;entryX=0;entryY=0;entryDx=0;entryDy=0;fontStyle=1;fontSize=14;strokeWidth=2;" edge="1" parent="1" source="z_bUYEb38IMCgXF8E90Z-1" target="z_bUYEb38IMCgXF8E90Z-11">
          <mxGeometry relative="1" as="geometry" />
        </mxCell>
        <mxCell id="z_bUYEb38IMCgXF8E90Z-1" value="paddle.add" style="rounded=1;whiteSpace=wrap;html=1;fontStyle=1;fontSize=14;strokeWidth=2;" vertex="1" parent="1">
          <mxGeometry x="20" y="200" width="80" height="30" as="geometry" />
        </mxCell>
        <mxCell id="z_bUYEb38IMCgXF8E90Z-14" style="edgeStyle=orthogonalEdgeStyle;rounded=0;orthogonalLoop=1;jettySize=auto;html=1;exitX=0.5;exitY=1;exitDx=0;exitDy=0;entryX=0.25;entryY=0;entryDx=0;entryDy=0;fontStyle=1;fontSize=14;strokeWidth=2;" edge="1" parent="1" source="z_bUYEb38IMCgXF8E90Z-2" target="z_bUYEb38IMCgXF8E90Z-11">
          <mxGeometry relative="1" as="geometry">
            <mxPoint x="250" y="270" as="targetPoint" />
            <Array as="points">
              <mxPoint x="215" y="240" />
              <mxPoint x="275" y="240" />
            </Array>
          </mxGeometry>
        </mxCell>
        <mxCell id="z_bUYEb38IMCgXF8E90Z-2" value="paddle.uniform" style="rounded=1;whiteSpace=wrap;html=1;fontStyle=1;fontSize=14;strokeWidth=2;" vertex="1" parent="1">
          <mxGeometry x="120" y="200" width="110" height="30" as="geometry" />
        </mxCell>
        <mxCell id="z_bUYEb38IMCgXF8E90Z-15" style="edgeStyle=orthogonalEdgeStyle;rounded=0;orthogonalLoop=1;jettySize=auto;html=1;exitX=0.5;exitY=1;exitDx=0;exitDy=0;entryX=0.5;entryY=0;entryDx=0;entryDy=0;fontStyle=1;fontSize=14;strokeWidth=2;" edge="1" parent="1" source="z_bUYEb38IMCgXF8E90Z-3" target="z_bUYEb38IMCgXF8E90Z-11">
          <mxGeometry relative="1" as="geometry" />
        </mxCell>
        <mxCell id="z_bUYEb38IMCgXF8E90Z-3" value="paddle.conv" style="rounded=1;whiteSpace=wrap;html=1;fontStyle=1;fontSize=14;strokeWidth=2;" vertex="1" parent="1">
          <mxGeometry x="260" y="200" width="90" height="30" as="geometry" />
        </mxCell>
        <mxCell id="z_bUYEb38IMCgXF8E90Z-16" style="edgeStyle=orthogonalEdgeStyle;rounded=0;orthogonalLoop=1;jettySize=auto;html=1;exitX=0.5;exitY=1;exitDx=0;exitDy=0;entryX=0.75;entryY=0;entryDx=0;entryDy=0;fontStyle=1;fontSize=14;strokeWidth=2;" edge="1" parent="1" source="z_bUYEb38IMCgXF8E90Z-4" target="z_bUYEb38IMCgXF8E90Z-11">
          <mxGeometry relative="1" as="geometry">
            <Array as="points">
              <mxPoint x="465" y="240" />
              <mxPoint x="335" y="240" />
            </Array>
          </mxGeometry>
        </mxCell>
        <mxCell id="z_bUYEb38IMCgXF8E90Z-4" value="paddle.trunc" style="rounded=1;whiteSpace=wrap;html=1;fontStyle=1;fontSize=14;strokeWidth=2;" vertex="1" parent="1">
          <mxGeometry x="400" y="200" width="100" height="30" as="geometry" />
        </mxCell>
        <mxCell id="z_bUYEb38IMCgXF8E90Z-17" style="edgeStyle=orthogonalEdgeStyle;rounded=0;orthogonalLoop=1;jettySize=auto;html=1;exitX=0.5;exitY=1;exitDx=0;exitDy=0;entryX=1;entryY=0;entryDx=0;entryDy=0;fontStyle=1;fontSize=14;strokeWidth=2;" edge="1" parent="1" source="z_bUYEb38IMCgXF8E90Z-5" target="z_bUYEb38IMCgXF8E90Z-11">
          <mxGeometry relative="1" as="geometry" />
        </mxCell>
        <mxCell id="z_bUYEb38IMCgXF8E90Z-5" value="..." style="rounded=1;whiteSpace=wrap;html=1;fontStyle=1;fontSize=14;strokeWidth=2;" vertex="1" parent="1">
          <mxGeometry x="530" y="200" width="60" height="30" as="geometry" />
        </mxCell>
        <mxCell id="z_bUYEb38IMCgXF8E90Z-6" value="add op" style="rounded=1;whiteSpace=wrap;html=1;fontStyle=1;fontSize=14;strokeWidth=2;" vertex="1" parent="1">
          <mxGeometry x="90" y="420" width="70" height="30" as="geometry" />
        </mxCell>
        <mxCell id="z_bUYEb38IMCgXF8E90Z-7" value="uniform op" style="rounded=1;whiteSpace=wrap;html=1;fontStyle=1;fontSize=14;strokeWidth=2;" vertex="1" parent="1">
          <mxGeometry x="170" y="420" width="90" height="30" as="geometry" />
        </mxCell>
        <mxCell id="z_bUYEb38IMCgXF8E90Z-8" value="conv op" style="rounded=1;whiteSpace=wrap;html=1;fontStyle=1;fontSize=14;strokeWidth=2;" vertex="1" parent="1">
          <mxGeometry x="270" y="420" width="70" height="30" as="geometry" />
        </mxCell>
        <mxCell id="z_bUYEb38IMCgXF8E90Z-9" value="trunc op" style="rounded=1;whiteSpace=wrap;html=1;fontStyle=1;fontSize=14;strokeWidth=2;" vertex="1" parent="1">
          <mxGeometry x="350" y="420" width="70" height="30" as="geometry" />
        </mxCell>
        <mxCell id="z_bUYEb38IMCgXF8E90Z-10" value="..." style="rounded=1;whiteSpace=wrap;html=1;fontStyle=1;fontSize=14;strokeWidth=2;" vertex="1" parent="1">
          <mxGeometry x="430" y="420" width="60" height="30" as="geometry" />
        </mxCell>
        <mxCell id="z_bUYEb38IMCgXF8E90Z-18" style="edgeStyle=orthogonalEdgeStyle;rounded=0;orthogonalLoop=1;jettySize=auto;html=1;exitX=0.5;exitY=1;exitDx=0;exitDy=0;entryX=0.5;entryY=0;entryDx=0;entryDy=0;fontStyle=1;fontSize=14;strokeWidth=2;" edge="1" parent="1" source="z_bUYEb38IMCgXF8E90Z-11" target="z_bUYEb38IMCgXF8E90Z-12">
          <mxGeometry relative="1" as="geometry" />
        </mxCell>
        <mxCell id="z_bUYEb38IMCgXF8E90Z-11" value="动态图执行器" style="rounded=1;whiteSpace=wrap;html=1;fontStyle=1;fontSize=14;strokeWidth=2;" vertex="1" parent="1">
          <mxGeometry x="245" y="270" width="120" height="40" as="geometry" />
        </mxCell>
        <mxCell id="z_bUYEb38IMCgXF8E90Z-19" style="edgeStyle=orthogonalEdgeStyle;rounded=0;orthogonalLoop=1;jettySize=auto;html=1;exitX=0.5;exitY=1;exitDx=0;exitDy=0;entryX=0.5;entryY=0;entryDx=0;entryDy=0;fontStyle=1;fontSize=14;strokeWidth=2;" edge="1" parent="1" source="z_bUYEb38IMCgXF8E90Z-12" target="z_bUYEb38IMCgXF8E90Z-8">
          <mxGeometry relative="1" as="geometry" />
        </mxCell>
        <mxCell id="z_bUYEb38IMCgXF8E90Z-21" style="edgeStyle=orthogonalEdgeStyle;rounded=0;orthogonalLoop=1;jettySize=auto;html=1;exitX=0.25;exitY=1;exitDx=0;exitDy=0;entryX=0.5;entryY=0;entryDx=0;entryDy=0;fontStyle=1;fontSize=14;strokeWidth=2;" edge="1" parent="1" source="z_bUYEb38IMCgXF8E90Z-12" target="z_bUYEb38IMCgXF8E90Z-7">
          <mxGeometry relative="1" as="geometry">
            <Array as="points">
              <mxPoint x="275" y="390" />
              <mxPoint x="215" y="390" />
            </Array>
          </mxGeometry>
        </mxCell>
        <mxCell id="z_bUYEb38IMCgXF8E90Z-22" style="edgeStyle=orthogonalEdgeStyle;rounded=0;orthogonalLoop=1;jettySize=auto;html=1;exitX=0;exitY=1;exitDx=0;exitDy=0;entryX=0.5;entryY=0;entryDx=0;entryDy=0;fontStyle=1;fontSize=14;strokeWidth=2;" edge="1" parent="1" source="z_bUYEb38IMCgXF8E90Z-12" target="z_bUYEb38IMCgXF8E90Z-6">
          <mxGeometry relative="1" as="geometry">
            <Array as="points">
              <mxPoint x="245" y="380" />
              <mxPoint x="125" y="380" />
            </Array>
          </mxGeometry>
        </mxCell>
        <mxCell id="z_bUYEb38IMCgXF8E90Z-24" style="edgeStyle=orthogonalEdgeStyle;rounded=0;orthogonalLoop=1;jettySize=auto;html=1;exitX=0.75;exitY=1;exitDx=0;exitDy=0;entryX=0.5;entryY=0;entryDx=0;entryDy=0;fontStyle=1;fontSize=14;strokeWidth=2;" edge="1" parent="1" source="z_bUYEb38IMCgXF8E90Z-12" target="z_bUYEb38IMCgXF8E90Z-9">
          <mxGeometry relative="1" as="geometry" />
        </mxCell>
        <mxCell id="z_bUYEb38IMCgXF8E90Z-25" style="edgeStyle=orthogonalEdgeStyle;rounded=0;orthogonalLoop=1;jettySize=auto;html=1;exitX=1;exitY=1;exitDx=0;exitDy=0;entryX=0.5;entryY=0;entryDx=0;entryDy=0;fontStyle=1;fontSize=14;strokeWidth=2;" edge="1" parent="1" source="z_bUYEb38IMCgXF8E90Z-12" target="z_bUYEb38IMCgXF8E90Z-10">
          <mxGeometry relative="1" as="geometry">
            <Array as="points">
              <mxPoint x="365" y="380" />
              <mxPoint x="460" y="380" />
            </Array>
          </mxGeometry>
        </mxCell>
        <mxCell id="z_bUYEb38IMCgXF8E90Z-12" value="算子体系" style="rounded=1;whiteSpace=wrap;html=1;fontStyle=1;fontSize=14;strokeWidth=2;" vertex="1" parent="1">
          <mxGeometry x="245" y="330" width="120" height="40" as="geometry" />
        </mxCell>
        <mxCell id="z_bUYEb38IMCgXF8E90Z-49" value="" style="rounded=0;whiteSpace=wrap;html=1;fontSize=14;strokeWidth=2;" vertex="1" parent="1">
          <mxGeometry x="760" y="170" width="820" height="180" as="geometry" />
        </mxCell>
        <mxCell id="z_bUYEb38IMCgXF8E90Z-50" value="前端组网逻辑" style="rounded=0;whiteSpace=wrap;html=1;fontSize=14;strokeWidth=2;fillColor=#f8cecc;strokeColor=#b85450;" vertex="1" parent="1">
          <mxGeometry x="770" y="180" width="160" height="30" as="geometry" />
        </mxCell>
        <mxCell id="z_bUYEb38IMCgXF8E90Z-51" value="分布式策略" style="rounded=0;whiteSpace=wrap;html=1;fontSize=14;strokeWidth=2;fillColor=#f8cecc;strokeColor=#b85450;" vertex="1" parent="1">
          <mxGeometry x="940" y="180" width="150" height="30" as="geometry" />
        </mxCell>
        <mxCell id="z_bUYEb38IMCgXF8E90Z-52" value="Python 推理API&lt;span style=&quot;color: rgba(0, 0, 0, 0); font-family: monospace; font-size: 0px; text-align: start;&quot;&gt;%3CmxGraphModel%3E%3Croot%3E%3CmxCell%20id%3D%220%22%2F%3E%3CmxCell%20id%3D%221%22%20parent%3D%220%22%2F%3E%3CmxCell%20id%3D%222%22%20value%3D%22Python%20%E5%88%86%E5%B8%83%E5%BC%8F%E7%AD%96%E7%95%A5%20API%22%20style%3D%22rounded%3D0%3BwhiteSpace%3Dwrap%3Bhtml%3D1%3BfontSize%3D14%3BstrokeWidth%3D2%3B%22%20vertex%3D%221%22%20parent%3D%221%22%3E%3CmxGeometry%20x%3D%22940%22%20y%3D%22180%22%20width%3D%22150%22%20height%3D%2230%22%20as%3D%22geometry%22%2F%3E%3C%2FmxCell%3E%3C%2Froot%3E%3C%2FmxGraphModel%3E&lt;/span&gt;" style="rounded=0;whiteSpace=wrap;html=1;fontSize=14;strokeWidth=2;" vertex="1" parent="1">
          <mxGeometry x="1100" y="180" width="150" height="30" as="geometry" />
        </mxCell>
        <mxCell id="z_bUYEb38IMCgXF8E90Z-53" value="C++ 推理API&lt;span style=&quot;color: rgba(0, 0, 0, 0); font-family: monospace; font-size: 0px; text-align: start;&quot;&gt;%3CmxGraphModel%3E%3Croot%3E%3CmxCell%20id%3D%220%22%2F%3E%3CmxCell%20id%3D%221%22%20parent%3D%220%22%2F%3E%3CmxCell%20id%3D%222%22%20value%3D%22Python%20%E5%88%86%E5%B8%83%E5%BC%8F%E7%AD%96%E7%95%A5%20API%22%20style%3D%22rounded%3D0%3BwhiteSpace%3Dwrap%3Bhtml%3D1%3BfontSize%3D14%3BstrokeWidth%3D2%3B%22%20vertex%3D%221%22%20parent%3D%221%22%3E%3CmxGeometry%20x%3D%22940%22%20y%3D%22180%22%20width%3D%22150%22%20height%3D%2230%22%20as%3D%22geometry%22%2F%3E%3C%2FmxCell%3E%3C%2Froot%3E%3C%2FmxGraphModel%3E&lt;/span&gt;" style="rounded=0;whiteSpace=wrap;html=1;fontSize=14;strokeWidth=2;" vertex="1" parent="1">
          <mxGeometry x="1260" y="180" width="150" height="30" as="geometry" />
        </mxCell>
        <mxCell id="z_bUYEb38IMCgXF8E90Z-55" value="自定义算子" style="rounded=0;whiteSpace=wrap;html=1;fontSize=14;strokeWidth=2;fillColor=#f8cecc;strokeColor=#b85450;" vertex="1" parent="1">
          <mxGeometry x="1420" y="180" width="150" height="30" as="geometry" />
        </mxCell>
        <mxCell id="z_bUYEb38IMCgXF8E90Z-56" value="动态图调度执行机制" style="rounded=0;whiteSpace=wrap;html=1;fontSize=14;strokeWidth=2;fillColor=#f8cecc;strokeColor=#b85450;" vertex="1" parent="1">
          <mxGeometry x="770" y="220" width="260" height="60" as="geometry" />
        </mxCell>
        <mxCell id="z_bUYEb38IMCgXF8E90Z-57" value="静态图调度执行机制" style="rounded=0;whiteSpace=wrap;html=1;fontSize=14;strokeWidth=2;" vertex="1" parent="1">
          <mxGeometry x="1290" y="260" width="280" height="20" as="geometry" />
        </mxCell>
        <mxCell id="z_bUYEb38IMCgXF8E90Z-58" value="静态图中间表达" style="rounded=0;whiteSpace=wrap;html=1;fontSize=14;strokeWidth=2;" vertex="1" parent="1">
          <mxGeometry x="1290" y="220" width="280" height="20" as="geometry" />
        </mxCell>
        <mxCell id="z_bUYEb38IMCgXF8E90Z-59" value="算子表达体系" style="rounded=0;whiteSpace=wrap;html=1;fontSize=14;strokeWidth=2;fillColor=#f8cecc;strokeColor=#b85450;" vertex="1" parent="1">
          <mxGeometry x="770" y="290" width="800" height="20" as="geometry" />
        </mxCell>
        <mxCell id="z_bUYEb38IMCgXF8E90Z-60" value="算子核心逻辑" style="rounded=0;whiteSpace=wrap;html=1;fontSize=14;strokeWidth=2;" vertex="1" parent="1">
          <mxGeometry x="770" y="320" width="800" height="20" as="geometry" />
        </mxCell>
        <mxCell id="z_bUYEb38IMCgXF8E90Z-61" value="动转静模式" style="rounded=0;whiteSpace=wrap;html=1;fontSize=14;strokeWidth=2;fillColor=#f8cecc;strokeColor=#b85450;" vertex="1" parent="1">
          <mxGeometry x="1060" y="220" width="210" height="60" as="geometry" />
        </mxCell>
        <mxCell id="z_bUYEb38IMCgXF8E90Z-62" value="模型套件/工具中侵入式开发模块&amp;nbsp;" style="rounded=0;whiteSpace=wrap;html=1;fontSize=14;strokeWidth=2;fillColor=#f8cecc;strokeColor=#b85450;" vertex="1" parent="1">
          <mxGeometry x="760" y="130" width="410" height="30" as="geometry" />
        </mxCell>
        <mxCell id="z_bUYEb38IMCgXF8E90Z-64" value="模型套件中使用标准API的部分&amp;nbsp;" style="rounded=0;whiteSpace=wrap;html=1;fontSize=14;strokeWidth=2;" vertex="1" parent="1">
          <mxGeometry x="1180" y="130" width="400" height="30" as="geometry" />
        </mxCell>
      </root>
    </mxGraphModel>
  </diagram>
</mxfile>
